<?xml version="1.0" encoding="utf-8"?>
<!-- Generator: Adobe Illustrator 25.3.0, SVG Export Plug-In . SVG Version: 6.00 Build 0)  -->
<svg version="1.1" id="Capa_1" xmlns="http://www.w3.org/2000/svg" xmlns:xlink="http://www.w3.org/1999/xlink" x="0px" y="0px"
	 viewBox="0 0 262 50" style="enable-background:new 0 0 262 50;" xml:space="preserve">
<style type="text/css">
	.st0{fill:#FFFFFF;}
</style>
<g>
	<path class="st0" d="M0,10.8h4.5v4.6c1.6-3,4.5-5.1,8.5-5.1s7.5,2.2,9.1,6.3c1.7-4,5.6-6.3,9.8-6.3c2.9,0,5.4,1.1,7.4,3.1
		c2.1,2.1,3.1,4.9,3.1,8.4v17h-4.5V23.1c0-5.5-2.5-8.6-6.8-8.6c-2.4,0-4.2,0.8-5.6,2.5c-1.3,1.6-2.1,3.7-2.1,6.1v15.9H19V23.1
		c0-5.5-2.6-8.6-6.8-8.6c-2.5,0-4.4,0.9-5.7,2.7c-1.3,1.7-2,3.9-2,6.5v15.3H0V10.8z"/>
	<path class="st0" d="M48.4,5.4c-1.2-1.2-1.2-3.2,0-4.5c1.3-1.3,3.3-1.3,4.5,0c1.3,1.2,1.3,3.2,0,4.5C51.7,6.6,49.7,6.6,48.4,5.4z
		 M48.4,10.8h4.5v28.1h-4.5V10.8z"/>
	<path class="st0" d="M59.5,1.8H64v37.1h-4.5V1.8z"/>
	<path class="st0" d="M70.2,1.8h4.5v24.8l14.7-15.8h5.4l-12,12.8l12.5,15.3H90l-9.9-12.4l-5.4,5.7v6.7h-4.5V1.8z"/>
	<path class="st0" d="M109,38.8l-11.8-28h4.6l9.4,23.3l8.8-23.3h4.6L108.9,50h-4.5L109,38.8z"/>
	<path class="st0" d="M179,35c-2.7-2.9-4.1-6.3-4.1-10.3s1.4-7.4,4.1-10.2c2.8-2.8,6.1-4.2,10-4.2c4.4,0,8.2,2.2,10.3,5.6v-5.1h4.5
		v28.1h-4.5v-5.1c-2.1,3.4-5.9,5.6-10.3,5.6C185.1,39.3,181.8,37.9,179,35z M196.6,32.1c2-2.1,3-4.5,3-7.4c0-2.9-1-5.2-3-7.3
		c-2-2.1-4.4-3.1-7.2-3.1c-2.8,0-5.3,1-7.2,3.1c-2,2-3,4.5-3,7.3c0,2.9,1,5.4,3,7.4c2,2,4.4,3,7.2,3
		C192.2,35.2,194.6,34.1,196.6,32.1z"/>
	<path class="st0" d="M220.5,38.9h-2.9l-10.5-28.1h4.8l9.5,25.9l9.3-25.9h4.7L220.8,50h-4.5L220.5,38.9L220.5,38.9z"/>
	<path class="st0" d="M251.7,15.7l-7,5.2l-1.7-3l8-3.4l-8-3.5l1.7-3l7,5.2l-1-8.7h3.5l-1,8.7l7-5.2l1.7,3.1l-7.9,3.4l8,3.4l-1.7,3
		l-7-5.2l1,8.6h-3.5L251.7,15.7z"/>
	<path class="st0" d="M170.4,38.6h-4.5V34c-1.6,3-4.5,5.1-8.5,5.1s-7.5-2.2-9.1-6.3c-1.7,4-5.6,6.3-9.8,6.3c-2.9,0-5.4-1.1-7.4-3.1
		c-2.1-2.1-3.1-4.9-3.1-8.4v-17h4.5v15.8c0,5.5,2.5,8.6,6.8,8.6c2.4,0,4.2-0.8,5.6-2.5c1.3-1.6,2.1-3.7,2.1-6.1V10.5h4.5v15.8
		c0,5.5,2.6,8.6,6.8,8.6c2.5,0,4.4-0.9,5.7-2.7c1.3-1.7,2-3.9,2-6.5V10.5h4.5L170.4,38.6L170.4,38.6z"/>
</g>
</svg>
